#!OML:ASF E:\motion texture\Top Level 1\Subject 1\Session 1\male.ASF
:FULLY-SPECIFIED
:DEGREES
442
root 10.211 17.9552 4.61647 30.7044 -88.1098 -27.0321
lowerback -1.80701 1.77537 4.16656
upperback -2.24884 2.30149 1.35548
thorax -1.18847 1.08353 -0.921259
lowerneck -7.447 -4.31551 -10.0652
upperneck -22.4077 -4.95775 10.6539
head -4.95336 -2.66061 5.21742
rclavicle -7.52897e-015 -1.11319e-014
rhumerus 35.4633 2.33283 -93.0153
rradius 48.9665
rwrist -43.4631
rhand -7.3537 -51.1908
rfingers 7.12502
rthumb 18.5306 -80.3281
lclavicle -7.52897e-015 -1.11319e-014
lhumerus -9.62965 -14.3281 82.4374
lradius 37.6737
lwrist -12.1202
lhand -19.0098 23.8648
lfingers 7.12502
lthumb 7.29571 53.719
rfemur -25.1187 -6.22078 18.7992
rtibia 57.6259
rfoot -1.36474 -14.7227
rtoes 6.34843
lfemur -9.51843 -3.16176 -21.2956
ltibia 15.9411
lfoot -6.73908 -5.43071
ltoes 6.40092
443
root 10.0881 17.9609 4.61484 25.7058 -87.8548 -22.0471
lowerback -1.79862 1.69025 4.13044
upperback -2.33168 2.19107 1.30421
thorax -1.28278 1.02569 -0.956713
lowerneck -7.52039 -4.32194 -9.96878
upperneck -22.4593 -4.96313 10.6758
head -4.95844 -2.67202 5.20836
rclavicle 2.38542e-015 -1.35174e-014
rhumerus 37.2947 2.87041 -92.4061
rradius 49.9741
rwrist -43.413
rhand -7.32026 -50.5653
rfingers 7.12502
rthumb 18.5628 -79.6996
lclavicle 2.38542e-015 -1.35174e-014
lhumerus -8.78252 -15.1729 82.4424
lradius 38.617
lwrist -11.7897
lhand -19.0209 23.7778
lfingers 7.12502
lthumb 7.28494 53.6324
rfemur -25.6703 -6.48572 18.7094
rtibia 56.7286
rfoot -1.78049 -14.9717
rtoes 6.48521
lfemur -8.93263 -3.25171 -21.3911
ltibia 15.7119
lfoot -6.98757 -5.59655
ltoes 6.39438
444
root 9.96498 17.9658 4.61246 21.8674 -87.5824 -18.2115
lowerback -1.79052 1.60373 4.09411
upperback -2.41348 2.07854 1.25377
thorax -1.37606 0.966833 -0.990986
lowerneck -7.60504 -4.32743 -9.87083
upperneck -22.5167 -4.96681 10.6999
head -4.96374 -2.68297 5.1997
rclavicle -1.30204e-014 -7.95139e-015
rhumerus 39.0922 3.34075 -91.7674
rradius 50.9273
rwrist -43.2973
rhand -7.30547 -49.9678
rfingers 7.12502
rthumb 18.577 -79.1007
lclavicle -1.30204e-014 -7.95139e-015
lhumerus -7.96049 -15.9638 82.4304
lradius 39.5613
lwrist -11.4731
lhand -19.0219 23.6833
lfingers 7.12502
lthumb 7.28398 53.5379
rfemur -26.194 -6.73072 18.6229
rtibia 55.7283
rfoot -2.16216 -15.1911
rtoes 6.63695
lfemur -8.36545 -3.34137 -21.4751
ltibia 15.4943
lfoot -7.23687 -5.76227
ltoes 6.37383
445
root 9.84174 17.9698 4.6093 18.8897 -87.2998 -15.2267
lowerback -1.78794 1.51724 4.05504
upperback -2.4928 1.96553 1.20489
thorax -1.46396 0.907904 -1.02171
lowerneck -7.6875 -4.33089 -9.77192
upperneck -22.5872 -4.9683 10.7253
head -4.97371 -2.69337 5.19198
rclavicle 3.67752e-015 -2.38542e-015
rhumerus 40.8516 3.74948 -91.0978
rradius 51.8253
rwrist -43.1239
rhand -7.31025 -49.396
rfingers 7.12502
rthumb 18.5724 -78.5294
lclavicle 3.67752e-015 -2.38542e-015
lhumerus -7.16476 -16.7047 82.4066
lradius 40.5063
lwrist -11.1691
lhand -19.0148 23.5789
lfingers 7.12502
lthumb 7.29089 53.4333
rfemur -26.6891 -6.95275 18.538
rtibia 54.6304
rfoot -2.50468 -15.3823
rtoes 6.78564
lfemur -7.81575 -3.4297 -21.5487
ltibia 15.2879
lfoot -7.48728 -5.92661
ltoes 6.34448
446
root 9.71829 17.973 4.6054 16.5364 -87.0086 -12.8571
lowerback -1.78854 1.4299 4.01412
upperback -2.57006 1.85102 1.15695
thorax -1.54817 0.848354 -1.05013
lowerneck -7.76993 -4.33263 -9.67069
upperneck -22.6692 -4.96814 10.7505
head -4.9876 -2.70348 5.18436
rclavicle -6.70898e-015 1.11319e-014
rhumerus 42.5688 4.10297 -90.3969
rradius 52.6708
rwrist -42.9033
rhand -7.35406 -48.8446
rfingers 7.12502
rthumb 18.5303 -77.982
lclavicle -6.70898e-015 1.11319e-014
lhumerus -6.39709 -17.3998 82.3723
lradius 41.45
lwrist -10.8773
lhand -19.0053 23.4586
lfingers 7.12502
lthumb 7.30008 53.3127
rfemur -27.1533 -7.15277 18.4528
rtibia 53.4398
rfoot -2.80939 -15.5455
rtoes 6.92127
lfemur -7.28293 -3.5182 -21.6125
ltibia 15.0939
lfoot -7.73874 -6.09009
ltoes 6.30921
447
root 9.59458 17.9753 4.60072 14.6624 -86.7127 -10.9583
lowerback -1.78923 1.34051 3.97128
upperback -2.64547 1.73357 1.11025
thorax -1.6307 0.787441 -1.07601
lowerneck -7.8609 -4.33254 -9.56629
upperneck -22.7562 -4.96584 10.7748
head -5.00212 -2.71292 5.17592
rclavicle -2.80783e-015 5.1684e-015
rhumerus 44.2414 4.4078 -89.668
rradius 53.4621
rwrist -42.63
rhand -7.40799 -48.3315
rfingers 7.12502
rthumb 18.4784 -77.4739
lclavicle -2.80783e-015 5.1684e-015
lhumerus -5.66003 -18.0487 82.3269
lradius 42.3946
lwrist -10.5967
lhand -18.9854 23.326
lfingers 7.12502
lthumb 7.31921 53.1794
rfemur -27.5862 -7.32749 18.3667
rtibia 52.1643
rfoot -3.08063 -15.6832
rtoes 7.02522
lfemur -6.76592 -3.60624 -21.6665
ltibia 14.9121
lfoot -7.99154 -6.25135
ltoes 6.26486
448
root 9.47054 17.9767 4.59523 13.1509 -86.4149 -9.41452
lowerback -1.79325 1.25089 3.92537
upperback -2.71811 1.61547 1.06522
thorax -1.70873 0.726391 -1.09816
lowerneck -7.94818 -4.32986 -9.46746
upperneck -22.8566 -4.95973 10.8054
head -5.02147 -2.72087 5.17122
rclavicle 1.963e-015 -5.1684e-015
rhumerus 45.8661 4.6651 -88.9069
rradius 54.2037
rwrist -42.3082
rhand -7.52647 -47.8111
rfingers 7.12502
rthumb 18.3644 -76.9642
lclavicle 1.963e-015 -5.1684e-015
lhumerus -4.95208 -18.6588 82.2745
lradius 43.338
lwrist -10.3283
lhand -18.96 23.1847
lfingers 7.12502
lthumb 7.34376 53.0373
rfemur -27.9876 -7.47631 18.2786
rtibia 50.8124
rfoot -3.32445 -15.7976
rtoes 7.09469
lfemur -6.26349 -3.69506 -21.7112
ltibia 14.7425
lfoot -8.24612 -6.40856
ltoes 6.20771
